<?xml version="1.0" standalone="no"?>
<!DOCTYPE svg PUBLIC "-//W3C//DTD SVG 20010904//EN"
 "http://www.w3.org/TR/2001/REC-SVG-20010904/DTD/svg10.dtd">
<svg version="1.0" xmlns="http://www.w3.org/2000/svg"
 width="630.000000pt" height="630.000000pt" viewBox="0 0 630.000000 630.000000"
 preserveAspectRatio="xMidYMid meet">
<metadata>
Created by potrace 1.11, written by Peter Selinger 2001-2013
</metadata>
<g transform="translate(0.000000,630.000000) scale(0.100000,-0.100000)"
fill="#000000" stroke="none">
<path d="M2910 6284 c0 -28 -33 -73 -65 -88 -16 -7 -91 -23 -165 -35 -925
-149 -1713 -699 -2188 -1528 -192 -336 -310 -708 -352 -1112 -7 -62 -18 -128
-26 -147 -18 -43 -18 -43 9 -36 27 6 67 42 67 60 0 7 19 22 42 33 33 16 49 33
68 73 23 49 50 84 98 129 12 11 22 26 22 33 0 7 8 15 18 18 20 7 89 73 170
163 29 32 68 67 87 77 18 10 48 37 66 60 53 65 128 129 185 156 42 20 58 35
77 70 17 32 31 46 48 48 41 5 130 54 147 81 9 14 22 30 29 34 7 4 13 13 13 20
0 12 71 67 87 67 5 0 22 14 38 30 16 17 35 30 42 30 7 0 13 4 13 9 0 5 13 11
29 14 15 3 41 16 57 29 16 13 52 31 79 41 34 12 72 38 119 82 49 46 82 69 110
76 23 5 45 10 49 9 5 -1 14 5 20 13 7 7 33 22 59 31 26 10 60 32 76 51 20 22
42 35 69 39 21 4 58 22 82 42 24 18 50 34 57 34 7 0 19 6 27 14 7 8 35 21 61
30 26 9 57 22 69 30 12 7 54 19 92 26 52 9 77 19 96 39 15 15 53 37 85 49 79
31 116 51 132 71 14 18 98 40 153 41 21 0 42 7 50 16 19 23 64 44 95 44 15 0
36 7 46 17 10 9 31 18 46 19 64 7 91 16 116 39 20 18 38 25 69 25 23 0 53 6
67 14 14 7 36 20 50 27 14 8 39 24 57 37 17 12 45 22 61 22 17 0 34 5 37 11
11 16 48 27 65 19 9 -5 23 -2 35 6 10 8 31 14 46 14 14 0 48 9 75 19 55 22
229 55 243 46 5 -3 25 4 43 15 18 10 49 20 68 21 19 2 42 9 51 16 9 8 48 21
88 30 85 21 138 60 122 92 -16 29 -100 87 -175 120 -188 85 -449 160 -716 205
-140 24 -146 26 -177 60 -18 20 -33 45 -33 56 0 19 -6 20 -240 20 -213 0 -240
-2 -240 -16z"/>
<path d="M35 3331 c-38 -8 -50 -51 -15 -51 27 0 68 31 62 48 -2 6 -7 11 -10
11 -4 -1 -20 -4 -37 -8z"/>
<path d="M3230 2613 c0 -18 -79 -46 -107 -38 -27 7 -45 7 -125 4 -23 -1 -43 5
-54 16 -15 14 -19 15 -28 4 -6 -8 -22 -13 -35 -11 -13 2 -34 -2 -47 -9 -13 -7
-38 -9 -59 -6 -40 7 -147 -10 -155 -24 -4 -5 -27 -9 -53 -10 -33 -2 -44 -5
-35 -12 9 -6 7 -7 -7 -2 -27 10 -115 13 -110 4 8 -12 -48 -17 -98 -10 -26 5
-50 4 -53 -1 -3 -4 0 -8 5 -8 6 0 11 -7 11 -16 0 -11 -6 -14 -22 -8 -39 12
-129 5 -146 -12 -8 -9 -25 -14 -37 -12 -11 3 -27 -2 -35 -10 -10 -11 -28 -13
-75 -8 -49 5 -65 3 -75 -9 -7 -8 -28 -15 -46 -15 -28 0 -34 -4 -34 -21 0 -18
-2 -19 -15 -9 -9 7 -18 10 -22 6 -3 -3 0 -7 8 -7 8 -1 -3 -5 -24 -9 -21 -4
-59 -3 -84 1 -27 5 -51 5 -57 0 -6 -5 -24 -11 -41 -14 -16 -3 -55 -11 -85 -17
-30 -7 -76 -11 -102 -10 -35 1 -48 -3 -48 -13 0 -17 -70 -40 -85 -27 -7 6 -22
3 -41 -9 -16 -10 -46 -21 -67 -25 -25 -5 -37 -12 -38 -24 0 -10 -3 -12 -6 -4
-2 6 -20 12 -38 12 -19 0 -37 5 -41 11 -4 8 -9 7 -15 -2 -5 -8 -3 -17 4 -21 7
-5 1 -8 -15 -8 -21 0 -28 -5 -28 -20 0 -21 -10 -26 -26 -11 -14 13 -106 23
-99 11 4 -6 11 -8 16 -5 5 3 6 0 3 -8 -2 -7 -10 -14 -17 -15 -103 -11 -146
-19 -160 -30 -13 -10 -86 -24 -129 -25 -16 0 -28 -3 -28 -7 0 -4 -12 -11 -27
-15 -21 -5 -24 -8 -12 -16 11 -7 8 -9 -11 -10 l-25 -1 25 -8 c18 -6 20 -8 7
-9 -10 -1 -26 3 -35 8 -9 5 -26 5 -37 1 -18 -7 -20 -16 -19 -68 9 -286 225
-661 599 -1037 453 -456 967 -729 1610 -856 123 -24 133 -28 189 -76 l40 -33
246 0 c231 0 248 1 264 19 31 34 77 49 226 71 367 54 754 183 1042 346 561
317 990 768 1273 1336 40 81 82 175 94 210 27 80 46 229 37 289 l-7 47 -57 7
c-31 5 -77 9 -102 11 -25 1 -63 9 -85 18 -22 8 -64 15 -92 16 -52 0 -184 18
-213 28 -8 3 -21 4 -28 3 -7 -1 -22 5 -34 14 -13 8 -34 15 -48 15 -14 0 -31 5
-38 12 -15 15 -130 19 -156 6 -13 -7 -31 -5 -60 5 -22 9 -50 15 -61 15 -44 -2
-66 2 -60 11 3 5 1 12 -5 16 -5 3 -10 -1 -10 -9 0 -9 -8 -14 -20 -13 -11 1
-20 4 -20 8 0 22 -199 52 -297 45 -30 -3 -53 0 -53 5 0 6 -15 7 -35 3 -27 -5
-36 -3 -41 10 -3 9 -11 13 -16 10 -6 -4 -14 -1 -18 6 -11 17 -64 4 -54 -13 4
-7 -3 -3 -15 7 -20 18 -42 20 -234 24 -117 2 -214 8 -217 12 -15 22 -450 31
-476 10 -9 -9 -34 -10 -79 -5 -35 3 -70 3 -77 -1 -7 -4 -27 -9 -46 -11 -31 -3
-32 -2 -22 17 7 13 7 20 0 20 -5 0 -10 -3 -10 -7z m508 -20 c-21 -2 -57 -2
-80 0 -24 2 -7 4 37 4 44 0 63 -2 43 -4z m-1144 -72 c3 -4 -6 -6 -19 -3 -14 2
-25 6 -25 8 0 8 39 4 44 -5z m-1878 -396 c-16 -16 -86 -21 -86 -6 0 6 19 12
43 14 23 2 46 4 50 5 5 1 2 -5 -7 -13z"/>
<path d="M1828 2433 c12 -2 30 -2 40 0 9 3 -1 5 -23 4 -22 0 -30 -2 -17 -4z"/>
</g>
</svg>
